<svg xmlns="http://www.w3.org/2000/svg" xmlns:xlink="http://www.w3.org/1999/xlink" viewBox="0 0 1653.8 1674.81"><defs><linearGradient id="a" x1="322.75" y1="1230.77" x2="1976.55" y2="1230.77" gradientUnits="userSpaceOnUse"><stop offset="0" stop-color="#04a8d3"/><stop offset="0.07" stop-color="#08a5d1"/><stop offset="0.13" stop-color="#139dcb"/><stop offset="0.19" stop-color="#2790c1"/><stop offset="0.26" stop-color="#427db3"/><stop offset="0.32" stop-color="#6566a2"/><stop offset="0.34" stop-color="#705e9c"/><stop offset="0.43" stop-color="#735e9c"/><stop offset="0.5" stop-color="#7c5d9d"/><stop offset="0.56" stop-color="#8c5c9f"/><stop offset="0.6" stop-color="#9b5ba1"/><stop offset="0.73" stop-color="#c580b2"/><stop offset="0.8" stop-color="#db93ba"/><stop offset="0.89" stop-color="#dc95bb"/><stop offset="0.92" stop-color="#de9cc0"/><stop offset="0.94" stop-color="#e2a7c7"/><stop offset="0.96" stop-color="#e7b8d2"/><stop offset="0.98" stop-color="#efcee0"/><stop offset="0.99" stop-color="#f8e9f1"/><stop offset="1" stop-color="#fff"/></linearGradient><linearGradient id="b" x1="813.84" y1="690.04" x2="506.59" y2="905.17" gradientUnits="userSpaceOnUse"><stop offset="0" stop-color="#9b5ba1"/><stop offset="0.04" stop-color="#8f5ca0"/><stop offset="0.11" stop-color="#7e5d9e"/><stop offset="0.19" stop-color="#745e9c"/><stop offset="0.29" stop-color="#715e9c"/><stop offset="0.54" stop-color="#705e9c"/><stop offset="0.61" stop-color="#5b6ca7"/><stop offset="0.79" stop-color="#2c8dbf"/><stop offset="0.92" stop-color="#0fa1cd"/><stop offset="1" stop-color="#04a8d3"/></linearGradient><linearGradient id="c" x1="1639.11" y1="610.11" x2="1639.11" y2="610.11" xlink:href="#a"/><linearGradient id="d" x1="2358.56" y1="551.78" x2="2358.56" y2="551.78" xlink:href="#b"/><linearGradient id="e" x1="-63.19" y1="1843.76" x2="-63.19" y2="1843.76" xlink:href="#a"/><linearGradient id="f" x1="2670.54" y1="1143.6" x2="2670.54" y2="1143.6" xlink:href="#a"/><linearGradient id="g" x1="2783.93" y1="1170.81" x2="2783.93" y2="1170.81" xlink:href="#a"/><linearGradient id="h" x1="2525.41" y1="1046.09" x2="2525.41" y2="1046.09" xlink:href="#a"/><linearGradient id="i" x1="2439.24" y1="1270.59" x2="2439.24" y2="1270.59" xlink:href="#a"/><linearGradient id="j" x1="-64.32" y1="1681.05" x2="-64.32" y2="1681.05" xlink:href="#a"/><linearGradient id="k" x1="2271.43" y1="1953.17" x2="2271.43" y2="1953.17" xlink:href="#a"/><linearGradient id="l" x1="2353.06" y1="1950.91" x2="2353.06" y2="1950.91" xlink:href="#a"/><linearGradient id="m" x1="2271.43" y1="1975.85" x2="2271.43" y2="1975.85" xlink:href="#a"/><linearGradient id="n" x1="2300.91" y1="2007.6" x2="2300.91" y2="2007.6" xlink:href="#a"/><linearGradient id="o" x1="2289.57" y1="1842.06" x2="2289.57" y2="1842.06" xlink:href="#a"/><linearGradient id="p" x1="2328.12" y1="1896.48" x2="2328.12" y2="1896.48" xlink:href="#a"/><linearGradient id="q" x1="2339.46" y1="1898.75" x2="2339.46" y2="1898.75" xlink:href="#a"/><linearGradient id="r" x1="2255.55" y1="1853.39" x2="2255.55" y2="1853.39" xlink:href="#a"/><linearGradient id="s" x1="2264.62" y1="2034.81" x2="2264.62" y2="2034.81" xlink:href="#a"/><linearGradient id="t" x1="2269.16" y1="1393.05" x2="2269.16" y2="1393.05" xlink:href="#a"/><linearGradient id="u" x1="2337.19" y1="1558.59" x2="2337.19" y2="1558.59" xlink:href="#a"/><linearGradient id="v" x1="2681.88" y1="1757.02" x2="2681.88" y2="1757.02" xlink:href="#a"/><linearGradient id="w" x1="2842.89" y1="1726.4" x2="2842.89" y2="1726.4" xlink:href="#a"/><linearGradient id="x" x1="2427.9" y1="1758.15" x2="2427.9" y2="1758.15" xlink:href="#a"/></defs><path d="M1976.07,1848.66c-4.09-28.24-36.14-63-59.34-65.33-21.67-2.21-42.28,5.48-42.28,5.48l-2.83,1.11-.5.2c-.89.34-8.48,4-20.94,9.73-136.41,62.49-237.29,79.94-237.29,79.94-28.81,2.39-118.08,9.79-198.66-44.54-57.4-38.69-84.63-91.34-106.58-133.79-8-15.45-36.49-72.85-47.63-154.21-10.69-78.15-.74-145.67,9.07-179.15,11.64-39.68,32.64-83.15,32.64-83.15.42-.88.87-1.8,1.27-2.62,13.15-26.45,42.37-85.24,103.29-100.18,41.69-10.22,109.89-2.76,130,44.63,17.71,41.64-7.68,99.93-38.83,107.78-29.72,7.49-43.94-36.7-88.94-35.56-38,1-80,33.22-84.88,67.57-7.89,55.82,81.26,121.75,164.25,125.12,47.53,1.94,83-17,95.24-23.81,77.72-42.87,123.78-138.17,114.52-229-1.36-13.35-12.36-108.07-83.9-155.34-58.42-38.59-128.88-26.8-129.26-37.41-.33-9.06,51.07-9.8,104.31-29.48,127.89-47.28,187.21-174.63,197.29-197.3,11.91-26.75,39.08-89.85,31.75-172.34-3.48-39.18-11.46-128.92-78.77-170.19-41.59-25.5-86.64-20.83-91.71-20.12-8.27,1.15-43.64,3.82-76,33.31-51.48,47-237.12,343.6-474.78,756.86-3.57,6.21-14.5,26.58-31.92,57.25-36.6,64.43-76.66,129.51-147.07,235.89-62.06,93.75-93.09,140.63-118,172.83-57,73.67-121.44,149.58-195,163.27-13,2.41-43.58,7.68-68-9.07,0,0-20-13.71-29.11-43.52-53-173.78,720.77-1246.81,720.77-1246.81,24.09-33.42,82-115.32,55.16-157.35-15.53-24.29-52.92-25.8-59.66-25.94-67.21-1.46-121.31,69.71-142.68,98.57C890.19,749.82,629.57,1167.84,550.23,1291c0,0-228.69,355-227.48,538.89.42,64.27,26.05,115.23,26.05,115.23,7.77,15.23,34.65,66.15,94.4,97.79A211.33,211.33,0,0,0,486.5,2060a258.6,258.6,0,0,0,30.67,6.26c59.72,6.16,102.8-3.93,129.3-12.91,166.94-56.55,315.38-285.61,426.07-456.39,3.94-6.08,16.11-25.08,23.94-22.7,6.47,2,6.91,17.68,7.07,20.59,2.4,44,66.67,290.67,204.1,392.32,180.47,133.49,419.18,50.87,463.44,34C1860.55,1987.05,1985.21,1911.86,1976.07,1848.66ZM1566.17,753.55c56.42-83,84.85-124.48,95.24-120.19,15.08,6.23,8.19,84.06-29.48,147.4-47,79-134.74,123.62-147.14,110.9C1477.44,884.12,1507,840.6,1566.17,753.55Z" transform="translate(-322.75 -393.36)" fill="url(#a)"/><path d="M572.14,893.19c-5.77-.7-100.25-12.93-105.61-49.69-1.94-13.29,8.37-25.56,16.91-34.18,78.93-79.7,308.64-155.43,347-95.51,4.37,6.83,9.55,20.55,8.75,35.83-.63,12.16-5.31,31-31.09,55.91C701,908.87,572.14,893.19,572.14,893.19Z" transform="translate(-322.75 -393.36)" fill="url(#b)"/><path d="M1376,1359.2" transform="translate(-322.75 -393.36)" fill="none" stroke="#010101" stroke-miterlimit="10"/><path d="M1639.11,610.11" transform="translate(-322.75 -393.36)" fill="url(#c)"/><path d="M2358.56,551.78" transform="translate(-322.75 -393.36)" fill="url(#d)"/><path d="M-63.19,1843.76" transform="translate(-322.75 -393.36)" fill="url(#e)"/><path d="M1713.57,851.06" transform="translate(-322.75 -393.36)" fill="#fff"/><path d="M1831.49,1005.27" transform="translate(-322.75 -393.36)" fill="#fff"/><path d="M2670.54,1143.6" transform="translate(-322.75 -393.36)" fill="url(#f)"/><path d="M2783.93,1170.81" transform="translate(-322.75 -393.36)" fill="url(#g)"/><path d="M2525.41,1046.09" transform="translate(-322.75 -393.36)" fill="url(#h)"/><path d="M2439.24,1270.59" transform="translate(-322.75 -393.36)" fill="url(#i)"/><path d="M486.73,1842.06" transform="translate(-322.75 -393.36)" fill="none"/><path d="M-64.32,1681.05" transform="translate(-322.75 -393.36)" fill="url(#j)"/><path d="M2271.43,1953.17" transform="translate(-322.75 -393.36)" fill="url(#k)"/><path d="M2353.06,1950.91" transform="translate(-322.75 -393.36)" fill="url(#l)"/><path d="M2271.43,1975.85" transform="translate(-322.75 -393.36)" fill="url(#m)"/><path d="M2300.91,2007.6" transform="translate(-322.75 -393.36)" fill="url(#n)"/><path d="M2289.57,1842.06" transform="translate(-322.75 -393.36)" fill="url(#o)"/><path d="M2328.12,1896.48" transform="translate(-322.75 -393.36)" fill="url(#p)"/><path d="M2339.46,1898.75" transform="translate(-322.75 -393.36)" fill="url(#q)"/><path d="M2255.55,1853.39" transform="translate(-322.75 -393.36)" fill="url(#r)"/><path d="M2264.62,2034.81" transform="translate(-322.75 -393.36)" fill="url(#s)"/><path d="M2269.16,1393.05" transform="translate(-322.75 -393.36)" fill="url(#t)"/><path d="M2337.19,1558.59" transform="translate(-322.75 -393.36)" fill="url(#u)"/><path d="M2681.88,1757" transform="translate(-322.75 -393.36)" fill="url(#v)"/><path d="M2842.89,1726.4" transform="translate(-322.75 -393.36)" fill="url(#w)"/><path d="M2427.9,1758.15" transform="translate(-322.75 -393.36)" fill="url(#x)"/></svg>